<?xml version="1.0" encoding="utf-8"?>
<!-- Generator: Adobe Illustrator 14.0.0, SVG Export Plug-In . SVG Version: 6.00 Build 43363)  -->
<!DOCTYPE svg PUBLIC "-//W3C//DTD SVG 1.1//EN" "http://www.w3.org/Graphics/SVG/1.1/DTD/svg11.dtd">
<svg version="1.1" id="Layer_1" xmlns="http://www.w3.org/2000/svg" xmlns:xlink="http://www.w3.org/1999/xlink" x="0px" y="0px"
	 width="523.59px" height="128.25px" viewBox="0 0 523.59 128.25" enable-background="new 0 0 523.59 128.25" xml:space="preserve">
<g>
	<g opacity="0.25">
		<path d="M19.092,10.209c-0.787-0.132-1.606-0.219-2.271-0.243l-0.118-0.004c0.027-0.059,0.047-0.099,0.054-0.104
			c0.015-0.012,0.026-0.062,0.028-0.11c0-0.027,0.012-0.114,0.03-0.229c0.18,0.007,0.419,0.012,0.68,0.014
			c1.007,0.008,2.061,0.089,2.784,0.217c0.43,0.076,0.573,0.073,0.255-0.004c-0.322-0.078-1.276-0.193-2.036-0.243
			c-0.51-0.035-1.242-0.047-1.673-0.041c0.013-0.075,0.027-0.158,0.042-0.243c0.061-0.33,0.082-0.661,0.083-1.321
			c0.001-1.023-0.054-1.305-0.387-1.982c-0.135-0.276-0.289-0.511-0.474-0.723c0.162-0.478,0.158-1.217-0.01-1.866
			c-0.138-0.532-0.187-0.566-0.669-0.464c-0.409,0.087-0.736,0.206-1.156,0.417c-0.199,0.1-0.473,0.256-0.671,0.379
			c-0.518-0.182-1.053-0.303-1.625-0.368c-0.579-0.066-1.999-0.029-2.503,0.064C8.96,3.445,8.517,3.557,8.115,3.689
			C7.915,3.565,7.624,3.398,7.416,3.293c-0.422-0.212-0.75-0.33-1.16-0.417C5.775,2.773,5.726,2.808,5.588,3.34
			C5.417,3.998,5.416,4.75,5.584,5.226c0.02,0.054,0.032,0.093,0.036,0.123c-0.683,0.86-0.906,1.822-0.757,3.164
			c0.038,0.35,0.098,0.671,0.181,0.965C4.609,9.476,3.989,9.492,3.542,9.521C2.78,9.571,1.826,9.684,1.504,9.762
			C1.187,9.84,1.328,9.842,1.759,9.767C2.482,9.64,3.536,9.557,4.542,9.55c0.19-0.001,0.368-0.004,0.521-0.008
			c0.046,0.155,0.098,0.303,0.158,0.444L5.216,9.986c-0.665,0.023-1.483,0.11-2.27,0.242c-0.59,0.1-1.462,0.297-1.563,0.354
			c-0.107,0.06-0.02,0.047,0.438-0.069c0.834-0.211,1.918-0.373,3.262-0.485l0.15-0.014c0.289,0.67,0.732,1.181,1.36,1.58
			c0.384,0.244,0.999,0.495,1.309,0.534c0.085,0.011,0.333,0.062,0.551,0.113c0.218,0.051,0.645,0.127,0.947,0.171h0.007
			C9.4,12.417,9.396,12.419,9.39,12.423c-0.367,0.19-0.605,0.487-0.766,0.955c-0.072,0.021-0.162,0.051-0.259,0.084
			c-0.347,0.118-0.481,0.142-0.833,0.145c-0.364,0.002-0.451-0.013-0.668-0.116c-0.316-0.147-0.611-0.418-0.808-0.742
			c-0.328-0.542-0.896-0.924-1.369-0.924c-0.404,0-0.481,0.164-0.189,0.403c0.44,0.36,0.77,0.727,0.904,1.007
			c0.076,0.158,0.193,0.401,0.26,0.54c0.071,0.149,0.224,0.351,0.37,0.49c0.342,0.326,0.672,0.482,1.165,0.556
			c0.33,0.048,0.412,0.048,0.801-0.001c0.188-0.023,0.347-0.049,0.489-0.083c0,0.16,0,0.344,0,0.561c0,1.157-0.014,1.529-0.06,1.638
			c-0.086,0.207-0.281,0.419-0.469,0.515c-0.188,0.096-0.247,0.201-0.167,0.298c0.044,0.052,0.128,0.062,0.412,0.043
			c0.539-0.033,0.919-0.232,1.113-0.583c0.062-0.113,0.077-0.339,0.096-1.519c0.021-1.28,0.03-1.402,0.113-1.585
			c0.051-0.109,0.124-0.227,0.164-0.259c0.068-0.056,0.073,0.055,0.073,1.586c0,1.689-0.018,1.893-0.187,2.218
			c-0.038,0.074-0.11,0.17-0.161,0.216c-0.088,0.081-0.126,0.287-0.064,0.349c0.102,0.101,0.611-0.058,0.889-0.276
			c0.473-0.375,0.529-0.685,0.533-2.923l0.002-1.313l0.144,0.014l0.144,0.013l0.023,1.718c0.027,1.934,0.031,1.962,0.36,2.335
			c0.187,0.211,0.375,0.328,0.681,0.419c0.41,0.123,0.533-0.067,0.258-0.396c-0.299-0.358-0.314-0.495-0.298-2.617
			c0.011-1.36,0.011-1.36,0.099-1.281c0.185,0.168,0.22,0.443,0.22,1.719c0,1.584,0.045,1.735,0.605,2.012
			c0.261,0.127,0.334,0.143,0.669,0.145c0.356,0.001,0.378-0.004,0.391-0.097c0.011-0.075-0.033-0.126-0.199-0.228
			c-0.218-0.134-0.369-0.306-0.464-0.522c-0.036-0.083-0.061-0.628-0.077-1.75c-0.024-1.568-0.029-1.64-0.126-1.885
			c-0.132-0.331-0.333-0.591-0.588-0.764c-0.066-0.043-0.132-0.079-0.218-0.106c0.105-0.01,0.208-0.021,0.307-0.036
			c1.03-0.137,1.575-0.251,2.012-0.42c0.924-0.356,1.55-0.947,1.889-1.785c0.03-0.075,0.06-0.146,0.085-0.203l0.261,0.022
			c1.344,0.113,2.428,0.275,3.263,0.487c0.458,0.116,0.544,0.13,0.438,0.068C20.553,10.505,19.681,10.308,19.092,10.209z
			 M15.151,10.188c-0.152,0.336-0.579,0.767-0.922,0.936c-0.339,0.167-0.872,0.295-1.474,0.356c-0.413,0.042-2.711,0.054-3.09,0.017
			c-1.256-0.124-1.96-0.365-2.479-0.849c-0.492-0.46-0.721-1.084-0.681-1.853c0.026-0.481,0.142-0.783,0.445-1.15
			C7.225,7.312,7.516,7.105,7.857,7c0.287-0.088,1.165-0.096,2.347-0.02c0.522,0.034,0.954,0.034,1.476,0
			c1.235-0.078,2.061-0.069,2.365,0.025c0.479,0.148,0.916,0.546,1.178,1.078c0.118,0.237,0.141,0.338,0.158,0.704
			C15.404,9.292,15.317,9.828,15.151,10.188z M8.92,8.022C8.216,7.899,7.815,9.103,8.354,9.718c0.256,0.292,0.484,0.339,0.768,0.163
			C9.386,9.716,9.528,9.408,9.528,9.01C9.528,8.479,9.287,8.088,8.92,8.022z M13.187,8.095c-0.703-0.123-1.105,1.079-0.566,1.694
			c0.257,0.292,0.483,0.34,0.769,0.162c0.263-0.164,0.406-0.472,0.406-0.871C13.796,8.551,13.554,8.16,13.187,8.095z M11.296,10.461
			c-0.015,0.048-0.089,0.121-0.163,0.159c-0.188,0.096-0.323,0.063-0.521-0.118c-0.122-0.11-0.178-0.169-0.215-0.053
			c-0.035,0.107,0.184,0.323,0.352,0.389c0.154,0.062,0.265,0.064,0.433-0.007c0.167-0.069,0.312-0.256,0.312-0.377
			C11.495,10.343,11.333,10.348,11.296,10.461z M11.089,10.085c0.106-0.095,0.131-0.289,0.028-0.392
			c-0.102-0.103-0.31-0.087-0.391,0.028c-0.094,0.135-0.044,0.237,0.024,0.347C10.854,10.15,10.996,10.167,11.089,10.085z"/>
	</g>
	<g>
		<path fill="#FFFFFF" d="M19.092,11.209c-0.787-0.132-1.606-0.219-2.271-0.243l-0.118-0.004c0.027-0.059,0.047-0.099,0.054-0.104
			c0.015-0.012,0.026-0.062,0.028-0.11c0-0.027,0.012-0.114,0.03-0.229c0.18,0.007,0.419,0.012,0.68,0.014
			c1.007,0.008,2.061,0.089,2.784,0.217c0.43,0.076,0.573,0.073,0.255-0.004c-0.322-0.078-1.276-0.193-2.036-0.243
			c-0.51-0.035-1.242-0.047-1.673-0.041c0.013-0.075,0.027-0.158,0.042-0.243c0.061-0.33,0.082-0.661,0.083-1.321
			c0.001-1.023-0.054-1.305-0.387-1.982c-0.135-0.276-0.289-0.511-0.474-0.723c0.162-0.478,0.158-1.217-0.01-1.866
			c-0.138-0.532-0.187-0.566-0.669-0.464c-0.409,0.087-0.736,0.206-1.156,0.417c-0.199,0.1-0.473,0.256-0.671,0.379
			c-0.518-0.182-1.053-0.303-1.625-0.368c-0.579-0.066-1.999-0.029-2.503,0.064C8.96,4.445,8.517,4.557,8.115,4.689
			C7.915,4.565,7.624,4.398,7.416,4.293c-0.422-0.212-0.75-0.33-1.16-0.417C5.775,3.773,5.726,3.808,5.588,4.34
			C5.417,4.998,5.416,5.75,5.584,6.226c0.02,0.054,0.032,0.093,0.036,0.123c-0.683,0.86-0.906,1.822-0.757,3.164
			c0.038,0.35,0.098,0.671,0.181,0.965c-0.436-0.003-1.055,0.013-1.503,0.042c-0.761,0.05-1.715,0.164-2.037,0.242
			c-0.317,0.078-0.176,0.08,0.255,0.004c0.723-0.127,1.777-0.209,2.783-0.217c0.19-0.001,0.368-0.004,0.521-0.008
			c0.046,0.155,0.098,0.303,0.158,0.444l-0.005,0.001c-0.665,0.023-1.483,0.11-2.27,0.242c-0.59,0.1-1.462,0.297-1.563,0.354
			c-0.107,0.06-0.02,0.047,0.438-0.069c0.834-0.211,1.918-0.373,3.262-0.485l0.15-0.014c0.289,0.67,0.732,1.181,1.36,1.58
			c0.384,0.244,0.999,0.495,1.309,0.534c0.085,0.011,0.333,0.062,0.551,0.113c0.218,0.051,0.645,0.127,0.947,0.171h0.007
			C9.4,13.417,9.396,13.419,9.39,13.423c-0.367,0.19-0.605,0.487-0.766,0.955c-0.072,0.021-0.162,0.051-0.259,0.084
			c-0.347,0.118-0.481,0.142-0.833,0.145c-0.364,0.002-0.451-0.013-0.668-0.116c-0.316-0.147-0.611-0.418-0.808-0.742
			c-0.328-0.542-0.896-0.924-1.369-0.924c-0.404,0-0.481,0.164-0.189,0.403c0.44,0.36,0.77,0.727,0.904,1.007
			c0.076,0.158,0.193,0.401,0.26,0.54c0.071,0.149,0.224,0.351,0.37,0.49c0.342,0.326,0.672,0.482,1.165,0.556
			c0.33,0.048,0.412,0.048,0.801-0.001c0.188-0.023,0.347-0.049,0.489-0.083c0,0.16,0,0.344,0,0.561c0,1.157-0.014,1.529-0.06,1.638
			c-0.086,0.207-0.281,0.419-0.469,0.515c-0.188,0.096-0.247,0.201-0.167,0.298c0.044,0.052,0.128,0.062,0.412,0.043
			c0.539-0.033,0.919-0.232,1.113-0.583c0.062-0.113,0.077-0.339,0.096-1.519c0.021-1.28,0.03-1.402,0.113-1.585
			c0.051-0.109,0.124-0.227,0.164-0.259c0.068-0.056,0.073,0.055,0.073,1.586c0,1.689-0.018,1.893-0.187,2.218
			c-0.038,0.074-0.11,0.17-0.161,0.216c-0.088,0.081-0.126,0.287-0.064,0.349c0.102,0.101,0.611-0.058,0.889-0.276
			c0.473-0.375,0.529-0.685,0.533-2.923l0.002-1.313l0.144,0.014l0.144,0.013l0.023,1.718c0.027,1.934,0.031,1.962,0.36,2.335
			c0.187,0.211,0.375,0.328,0.681,0.419c0.41,0.123,0.533-0.067,0.258-0.396c-0.299-0.358-0.314-0.495-0.298-2.617
			c0.011-1.36,0.011-1.36,0.099-1.281c0.185,0.168,0.22,0.443,0.22,1.719c0,1.584,0.045,1.735,0.605,2.012
			c0.261,0.127,0.334,0.143,0.669,0.145c0.356,0.001,0.378-0.004,0.391-0.097c0.011-0.075-0.033-0.126-0.199-0.228
			c-0.218-0.134-0.369-0.306-0.464-0.522c-0.036-0.083-0.061-0.628-0.077-1.75c-0.024-1.568-0.029-1.64-0.126-1.885
			c-0.132-0.331-0.333-0.591-0.588-0.764c-0.066-0.043-0.132-0.079-0.218-0.106c0.105-0.01,0.208-0.021,0.307-0.036
			c1.03-0.137,1.575-0.251,2.012-0.42c0.924-0.356,1.55-0.947,1.889-1.785c0.03-0.075,0.06-0.146,0.085-0.203l0.261,0.022
			c1.344,0.113,2.428,0.275,3.263,0.487c0.458,0.116,0.544,0.13,0.438,0.068C20.553,11.505,19.681,11.308,19.092,11.209z
			 M15.151,11.188c-0.152,0.336-0.579,0.767-0.922,0.936c-0.339,0.167-0.872,0.295-1.474,0.356c-0.413,0.042-2.711,0.054-3.09,0.017
			c-1.256-0.124-1.96-0.365-2.479-0.849c-0.492-0.46-0.721-1.084-0.681-1.853c0.026-0.481,0.142-0.783,0.445-1.15
			C7.225,8.312,7.516,8.105,7.857,8c0.287-0.088,1.165-0.096,2.347-0.02c0.522,0.034,0.954,0.034,1.476,0
			c1.235-0.078,2.061-0.069,2.365,0.025c0.479,0.148,0.916,0.546,1.178,1.078c0.118,0.237,0.141,0.338,0.158,0.704
			C15.404,10.292,15.317,10.828,15.151,11.188z M8.92,9.022c-0.704-0.123-1.105,1.081-0.566,1.695
			c0.256,0.292,0.484,0.339,0.768,0.163c0.264-0.165,0.406-0.472,0.406-0.871C9.528,9.479,9.287,9.088,8.92,9.022z M13.187,9.095
			c-0.703-0.123-1.105,1.079-0.566,1.694c0.257,0.292,0.483,0.34,0.769,0.162c0.263-0.164,0.406-0.472,0.406-0.871
			C13.796,9.551,13.554,9.16,13.187,9.095z M11.296,11.461c-0.015,0.048-0.089,0.121-0.163,0.159
			c-0.188,0.096-0.323,0.063-0.521-0.118c-0.122-0.11-0.178-0.169-0.215-0.053c-0.035,0.107,0.184,0.323,0.352,0.389
			c0.154,0.062,0.265,0.064,0.433-0.007c0.167-0.069,0.312-0.256,0.312-0.377C11.495,11.343,11.333,11.348,11.296,11.461z
			 M11.089,11.085c0.106-0.095,0.131-0.289,0.028-0.392c-0.102-0.103-0.31-0.087-0.391,0.028c-0.094,0.135-0.044,0.237,0.024,0.347
			C10.854,11.15,10.996,11.167,11.089,11.085z"/>
	</g>
</g>
</svg>
