<?xml version="1.0" encoding="utf-8"?>
<!-- Generator: Adobe Illustrator 14.0.0, SVG Export Plug-In . SVG Version: 6.00 Build 43363)  -->
<!DOCTYPE svg PUBLIC "-//W3C//DTD SVG 1.1//EN" "http://www.w3.org/Graphics/SVG/1.1/DTD/svg11.dtd">
<svg version="1.1" xmlns="http://www.w3.org/2000/svg" xmlns:xlink="http://www.w3.org/1999/xlink" x="0px" y="0px" width="30px"
	 height="20px" viewBox="0 0 30 20" enable-background="new 0 0 30 20" xml:space="preserve">
<g id="Layer_1">
</g>
<g id="Layer_2">
	<g>
		<g opacity="0.25">
			<path d="M22.257-4.123C15.923-3.954,9.083,0.864,8.155,5.011c-0.601,2.683-0.183,7.343,1.4,7.343s3.099-5.458,5.155-4.481
				s-0.774,6.638,2.797,7.648s14.556-3.504,14.252-10.411S27.881-4.272,22.257-4.123z"/>
		</g>
		<g>
			<path fill="#333333" d="M22.257-3.123C15.923-2.954,9.083,1.864,8.155,6.011c-0.601,2.683-0.183,7.343,1.4,7.343
				s3.099-5.458,5.155-4.481s-0.774,6.638,2.797,7.648s14.556-3.504,14.252-10.411S27.881-3.272,22.257-3.123z"/>
		</g>
	</g>
	<ellipse fill="#FFFFFF" cx="20.708" cy="12.146" rx="1.718" ry="1.857"/>
	<ellipse fill="#FFFFFF" cx="10.819" cy="6.093" rx="0.927" ry="0.994"/>
	<ellipse fill="#FFFFFF" cx="16.019" cy="3.555" rx="1.636" ry="1.561"/>
	<ellipse fill="#FFFFFF" cx="22.106" cy="0.967" rx="1.836" ry="1.915"/>
	<ellipse fill="#FFFFFF" cx="27.097" cy="3.599" rx="1.835" ry="1.365"/>
</g>
</svg>
